<?xml version="1.0" encoding="utf-8"?><!-- Uploaded to: SVG Repo, www.svgrepo.com, Generator: SVG Repo Mixer Tools -->
<svg xmlns="http://www.w3.org/2000/svg" fill="none" viewBox="0 0 24 24" id="Person-Add--Streamline-Rounded-Material" height="24" width="24"><desc>Person Add Streamline Icon: https://streamlinehq.com</desc><path fill="#000000" d="M18.25 10.7501h-2.5c-0.2125 0 -0.3906 -0.07235 -0.53425 -0.217 -0.14385 -0.1445 -0.21575 -0.32365 -0.21575 -0.5375 0 -0.21365 0.0719 -0.39135 0.21575 -0.533 0.14365 -0.14165 0.32175 -0.2125 0.53425 -0.2125h2.5v-2.5c0 -0.2125 0.07235 -0.39065 0.217 -0.5345 0.1445 -0.14365 0.32365 -0.2155 0.5375 -0.2155 0.21365 0 0.39135 0.07185 0.533 0.2155 0.14165 0.14385 0.2125 0.322 0.2125 0.5345v2.5h2.5c0.2125 0 0.39065 0.07235 0.5345 0.217 0.14365 0.1445 0.2155 0.32365 0.2155 0.5375 0 0.21365 -0.07185 0.39135 -0.2155 0.533 -0.14385 0.14165 -0.322 0.2125 -0.5345 0.2125h-2.5v2.5c0 0.2125 -0.07235 0.3906 -0.217 0.53425 -0.1445 0.14385 -0.32365 0.21575 -0.5375 0.21575 -0.21365 0 -0.39135 -0.0719 -0.533 -0.21575 -0.14165 -0.14365 -0.2125 -0.32175 -0.2125 -0.53425v-2.5Zm-9.25 1.225c-1.1 0 -2 -0.35 -2.7 -1.05 -0.7 -0.7 -1.05 -1.6 -1.05 -2.7s0.35 -2 1.05 -2.7c0.7 -0.7 1.6 -1.05 2.7 -1.05s2 0.35 2.7 1.05c0.7 0.7 1.05 1.6 1.05 2.7s-0.35 2 -1.05 2.7c-0.7 0.7 -1.6 1.05 -2.7 1.05Zm-8 6.525v-0.85c0 -0.58335 0.145835 -1.1125 0.4375 -1.5875 0.291665 -0.475 0.7125 -0.82915 1.2625 -1.0625 1.25 -0.55 2.36115 -0.9375 3.3335 -1.1625 0.97235 -0.225 1.95985 -0.3375 2.9625 -0.3375 1.00265 0 1.98735 0.1125 2.954 0.3375 0.96665 0.225 2.075 0.6125 3.325 1.1625 0.55 0.25 0.975 0.60835 1.275 1.075 0.3 0.46665 0.45 0.99165 0.45 1.575v0.85c0 0.4125 -0.14685 0.7656 -0.4405 1.05925 -0.29385 0.29385 -0.647 0.44075 -1.0595 0.44075H2.5c-0.4125 0 -0.765585 -0.1469 -1.05925 -0.44075C1.146915 19.2657 1 18.9126 1 18.5001Zm1.5 0h13v-0.85c0 -0.26665 -0.075 -0.52085 -0.225 -0.7625 -0.15 -0.24165 -0.35 -0.42085 -0.6 -0.5375 -1.18335 -0.55 -2.18335 -0.9125 -3 -1.0875 -0.81665 -0.175 -1.70835 -0.2625 -2.675 -0.2625 -0.96665 0 -1.8625 0.0875 -2.6875 0.2625 -0.825 0.175 -1.829165 0.5375 -3.0125 1.0875 -0.25 0.11665 -0.445835 0.29585 -0.5875 0.5375 -0.141665 0.24165 -0.2125 0.49585 -0.2125 0.7625v0.85Zm6.5 -8.025c0.65 0 1.1875 -0.2125 1.6125 -0.6375 0.425 -0.425 0.6375 -0.9625 0.6375 -1.6125s-0.2125 -1.1875 -0.6375 -1.6125c-0.425 -0.425 -0.9625 -0.6375 -1.6125 -0.6375s-1.1875 0.2125 -1.6125 0.6375c-0.425 0.425 -0.6375 0.9625 -0.6375 1.6125s0.2125 1.1875 0.6375 1.6125c0.425 0.425 0.9625 0.6375 1.6125 0.6375Z" stroke-width="0.5"></path></svg>