<svg viewBox="0 0 64 64" xmlns="http://www.w3.org/2000/svg" id="Toilet--Streamline-Emoji" height="64" width="64"><desc>Toilet Streamline Emoji: https://streamlinehq.com</desc><path d="M10.64 60.45333333333333a21.36 2.213333333333333 0 1 0 42.72 0 21.36 2.213333333333333 0 1 0 -42.72 0Z" fill="#45413c" opacity=".15" stroke-width="1"></path><path d="M45.42666666666666 59.33333333333333H24.826666666666668a1.3333333333333333 1.3333333333333333 0 0 1 -1.3333333333333333 -1.4666666666666668V35.4h27.253333333333334a22.666666666666664 22.666666666666664 0 0 0 -4 12.919999999999998v9.546666666666667a1.4 1.4 0 0 1 -1.3199999999999998 1.4666666666666668Z" fill="#ffffff" stroke-width="1"></path><path d="M23.506666666666664 53.44a19.266666666666666 19.266666666666666 0 0 0 3.4266666666666663 0.30666666666666664 17.88 17.88 0 0 0 16 -10.533333333333333 2.893333333333333 2.893333333333333 0 0 1 2.6666666666666665 -1.8266666666666667h2.293333333333333a21.893333333333334 21.893333333333334 0 0 1 2.92 -5.986666666666666H23.506666666666664Z" fill="#e0e0e0" stroke-width="1"></path><path d="M45.42666666666666 59.33333333333333H24.826666666666668a1.3333333333333333 1.3333333333333333 0 0 1 -1.3333333333333333 -1.4666666666666668V35.4h27.253333333333334a22.666666666666664 22.666666666666664 0 0 0 -4 12.919999999999998v9.546666666666667a1.4 1.4 0 0 1 -1.3199999999999998 1.4666666666666668Z" fill="none" stroke="#45413c" stroke-linecap="round" stroke-linejoin="round" stroke-width="1"></path><path d="M38.46666666666667 35.4v24H18.013333333333332a1.4666666666666668 1.4666666666666668 0 0 1 -1 -2.5466666666666664 18.453333333333333 18.453333333333333 0 0 0 5.173333333333333 -7.573333333333332 46.85333333333333 46.85333333333333 0 0 0 2.1999999999999997 -13.813333333333333Z" fill="#ffffff" stroke-width="1"></path><path d="M22.186666666666667 49.213333333333324a16.89333333333333 16.89333333333333 0 0 1 -1.8133333333333335 3.6799999999999997 44.73333333333333 44.73333333333333 0 0 0 7.533333333333333 0.6266666666666666 25.026666666666664 25.026666666666664 0 0 0 10.559999999999999 -2.3066666666666666V35.4H24.386666666666663a46.85333333333333 46.85333333333333 0 0 1 -2.1999999999999997 13.813333333333333Z" fill="#e0e0e0" stroke-width="1"></path><path d="M38.46666666666667 35.4v24H18.013333333333332a1.4666666666666668 1.4666666666666668 0 0 1 -1 -2.5466666666666664 18.453333333333333 18.453333333333333 0 0 0 5.173333333333333 -7.573333333333332 46.85333333333333 46.85333333333333 0 0 0 2.1999999999999997 -13.813333333333333Z" fill="none" stroke="#45413c" stroke-linecap="round" stroke-linejoin="round" stroke-width="1"></path><path d="M39.82666666666667 9.626666666666665h14.106666666666666v24.306666666666665a1.4666666666666668 1.4666666666666668 0 0 1 -1.4666666666666668 1.4666666666666668H41.33333333333333a1.4666666666666668 1.4666666666666668 0 0 1 -1.4666666666666668 -1.4666666666666668V9.626666666666665l-0.039999999999999994 0Z" fill="#ffffff" stroke-width="1"></path><path d="M39.82666666666667 9.626666666666665h14.12v4.32H39.82666666666667z" fill="#e0e0e0" stroke-width="1"></path><path d="M39.82666666666667 9.626666666666665h14.106666666666666l0 0v24.306666666666665a1.4666666666666668 1.4666666666666668 0 0 1 -1.4666666666666668 1.4666666666666668H41.33333333333333a1.4666666666666668 1.4666666666666668 0 0 1 -1.4666666666666668 -1.4666666666666668V9.626666666666665l-0.039999999999999994 0Z" fill="none" stroke="#45413c" stroke-linecap="round" stroke-linejoin="round" stroke-width="1"></path><path d="m38.599999999999994 5.946666666666666 16.57333333333333 0 0 3.6799999999999997 -16.57333333333333 0Z" fill="#ffffff" stroke="#45413c" stroke-linecap="round" stroke-linejoin="round" stroke-width="1"></path><path d="M41.666666666666664 35.4c0 7.626666666666666 -6.6 13.813333333333333 -14.666666666666666 13.813333333333333 -11.2 0 -17.826666666666664 -6.186666666666666 -17.826666666666664 -13.813333333333333Z" fill="#ffffff" stroke-width="1"></path><path d="M9.706666666666667 39.22666666666667h31.386666666666663a12.973333333333333 12.973333333333333 0 0 0 0.5733333333333333 -3.8266666666666667H9.106666666666666a12.559999999999999 12.559999999999999 0 0 0 0.6 3.8266666666666667Z" fill="#e0e0e0" stroke-width="1"></path><path d="M41.666666666666664 35.4c0 7.626666666666666 -6.6 13.813333333333333 -14.666666666666666 13.813333333333333 -11.2 0 -17.826666666666664 -6.186666666666666 -17.826666666666664 -13.813333333333333Z" fill="none" stroke="#45413c" stroke-linecap="round" stroke-linejoin="round" stroke-width="1"></path><path d="M9.613333333333333 31.72a1.853333333333333 1.853333333333333 0 1 0 0 3.6799999999999997h30.21333333333333v-3.6799999999999997Z" fill="#ffffff" stroke="#45413c" stroke-linecap="round" stroke-linejoin="round" stroke-width="1"></path><path d="M38.599999999999994 13.12h1.2266666666666666l0 0v5.16l0 0h-1.2266666666666666a1.4666666666666668 1.4666666666666668 0 0 1 -1.4666666666666668 -1.4666666666666668v-2.213333333333333a1.4666666666666668 1.4666666666666668 0 0 1 1.4666666666666668 -1.48Z" fill="#ffffff" stroke="#45413c" stroke-linecap="round" stroke-linejoin="round" stroke-width="1"></path></svg>